<?xml version="1.0" encoding="utf-8"?>
<svg id="master-artboard" viewBox="0 0 454.0765075683594 563.9745483398438" version="1.1" xmlns="http://www.w3.org/2000/svg" x="0px" y="0px" enable-background="new 0 0 1900 1400" width="454.0765075683594px" height="563.9745483398438px"><rect id="ee-background" x="0" y="0" width="454.0765075683594" height="563.9745483398438" style="fill: white; fill-opacity: 0; pointer-events: none;"/>

<path fill="#FFFFFF" d="M464,766.2c-26-14.1-56.3-23.9-90.1-29.1c-0.5-0.1-1.1-0.1-1.6-0.1c-0.6,0-1.1,0.1-1.6,0.1&#10;&#9;&#9;&#9;c-1-0.5-2-0.8-3.1-0.9c-16.6-2.3-29.4-2.7-35.5-2.8l-0.5,0c-0.6,0-1.1,0-1.6,0c-6.7,0-14,0.5-21.7,1.6c-1,0.1-2,0.4-2.9,0.9&#10;&#9;&#9;&#9;c-0.6-0.1-1.2-0.2-1.8-0.2c-0.6,0-1.1,0-1.7,0.1c-57.5,9.4-136.6,47.1-170.2,122.4c-17.5,39.4-22.9,92.4-16,157.7&#10;&#9;&#9;&#9;c7.2,67.8,24.9,122.2,30.2,137.3c11.7,33.6,31.7,65.5,56.3,89.7c29.9,29.5,66.3,47.5,105.3,52.1c0.4,0,0.8,0.1,1.2,0.1&#10;&#9;&#9;&#9;c0.7,0,1.4-0.1,2.1-0.2c1,0.4,2.1,0.7,3.2,0.8l1,0.1c4.7,0.3,9.2,0.5,13.3,0.5c0,0,2,0,2.1,0c5.1-0.1,10.3-0.3,15.7-0.7&#10;&#9;&#9;&#9;c0.7-0.1,1.5-0.1,2.2-0.2c0.4,0,0.8-0.1,1.3-0.1c4.8-0.4,8.6-0.9,12.1-1.4c0.3,0,0.6-0.1,0.9-0.1l0.2,0c1.1-0.2,2.2-0.5,3.1-1&#10;&#9;&#9;&#9;c0.5,0.1,1,0.1,1.5,0.1c0.6,0,1.2-0.1,1.8-0.2c62.3-11,111.9-47,151.6-110c18-28.6,34.7-89.1,41.5-150.6&#10;&#9;&#9;&#9;c4.8-43.1,8.7-124.3-18.4-183C527.6,813.9,500.8,786.1,464,766.2z" transform="matrix(1, 0, 0, 1, -112.03639221191406, -732.757080078125)"/><path fill="#310033" d="M420.8,1028.2c24.1,0,55.5-11.2,55.9-23.2c0.1-3.8-1.7-7.8-5.3-11.5c-9.3-9.6-27.5-15.3-48.7-15.3&#10;&#9;&#9;&#9;&#9;c-23,0-40.2,4.7-48.6,13.3c-3.7,3.8-5.6,8.4-5.4,13.6C369,1015.7,397.2,1028.2,420.8,1028.2z" transform="matrix(1, 0, 0, 1, -112.03639221191406, -732.757080078125)"/><path fill="#FFEA00" d="M218.2,1172.8c-0.5-12.5,2.9-22.7,10.3-30.6c9.1-9.7,21.8-13.3,29.8-14.6c-7.5-7.1-11.7-15.3-12.5-24.4&#10;&#9;&#9;&#9;&#9;c-1.2-14.3,6.3-27.3,11.7-34.6c-5,0.5-12.1,1-20.5,1c-30.5,0-70.7-6.6-89.1-38.1c-30.7-52.6-9.2-109.5,14.3-147.9&#10;&#9;&#9;&#9;&#9;c25-41,35.3-74.4,35.4-74.7l4.1-13.7l5.9,45.8c3.6,28,23.5,60.5,58.6,65.7c20.4,3,31.5,10.2,37.3,16V745.9&#10;&#9;&#9;&#9;&#9;c-56.3,9.2-131.2,46.3-162.5,116.5c-38.1,85.4-7.2,225.3,14.5,287.4c20.3,58.2,72,125.5,153.1,134.9v-62.3&#10;&#9;&#9;&#9;&#9;C292.8,1221.1,219.9,1213,218.2,1172.8z" transform="matrix(1, 0, 0, 1, -112.03639221191406, -732.757080078125)"/><path fill="#310033" d="M341.7,1111.1c22.4,0,39.1-1.3,42.9-2.5c0.3-4.5-8.3-24.1-23.2-46.1c-10.8-15.9-17.7-21.9-19.8-22.1&#10;&#9;&#9;&#9;&#9;c-7.1,1.8-48.1,55.7-50.8,66.8C295,1109.2,313.4,1111.1,341.7,1111.1L341.7,1111.1z" transform="matrix(1, 0, 0, 1, -112.03639221191406, -732.757080078125)"/><path fill="#FFEA00" d="M372.4,747.3v175.3c5.8-5.8,16.9-13,37.3-16c35.1-5.2,55-37.7,58.6-65.7l5.9-45.7l4.1,13.6&#10;&#9;&#9;&#9;&#9;c0.1,0.3,10.4,33.8,35.4,74.8c23.5,38.5,45,95.3,14.3,147.9c-18.4,31.5-58.6,38.1-89.1,38.1h0c-8.4,0-15.5-0.5-20.5-1&#10;&#9;&#9;&#9;&#9;c5.4,7.3,12.9,20.3,11.7,34.6c-0.8,9.1-5,17.3-12.5,24.4c8,1.4,20.8,5,29.8,14.6c7.4,7.8,10.8,18.1,10.3,30.6&#10;&#9;&#9;&#9;&#9;c-1.7,40.1-74.7,48.3-90.5,49.6v60c59.2-10.5,106.8-45.2,144.7-105.4c33.1-52.6,66-229.5,22.5-323.9&#10;&#9;&#9;&#9;&#9;C500.2,778.9,421.9,754.9,372.4,747.3z" transform="matrix(1, 0, 0, 1, -112.03639221191406, -732.757080078125)"/><path fill="#310033" d="M301.9,993.5c-9.3-9.6-27.5-15.3-48.7-15.3c-23,0-40.2,4.7-48.6,13.3c-3.7,3.8-5.6,8.4-5.4,13.6&#10;&#9;&#9;&#9;&#9;c0.3,10.6,28.5,23.2,52.1,23.2c24.1,0,55.5-11.2,55.9-23.2C307.3,1001.2,305.5,997.2,301.9,993.5z" transform="matrix(1, 0, 0, 1, -112.03639221191406, -732.757080078125)"/><path fill="#00AEEF" d="M451.6,1172.6c0.5-10.7-2.4-19.5-8.6-26.1c-12-12.9-32.8-13.5-33-13.5l-9-0.2l7.3-5.3&#10;&#9;&#9;&#9;&#9;c9.6-7,14.9-15.3,15.7-24.7c1.6-18.7-14.9-35.8-15-36l-6.5-6.7l9.2,1.5c0.1,0,11.6,1.9,27.2,1.9h0c28.9,0,66.9-6.1,83.8-35.1&#10;&#9;&#9;&#9;&#9;c29.1-50,8.3-104.6-14.2-141.6c-16.3-26.7-26.5-50.4-31.7-64l-2.4,18.9c-3.9,30.2-25.5,65.3-63.8,71&#10;&#9;&#9;&#9;&#9;c-32.1,4.7-38.3,20.3-38.4,20.4l-5.9,15.7l0-202.5c-16.1-2.2-28.5-2.7-34.2-2.7c-0.7,0-1.4,0-2,0c-6.2,0-13,0.5-20.3,1.5v204.8&#10;&#9;&#9;&#9;&#9;l-5.9-16.8c0-0.1-6.3-15.7-38.3-20.4c-38.2-5.6-59.9-40.7-63.8-71l-2.4-18.9c-5.2,13.6-15.4,37.2-31.7,64&#10;&#9;&#9;&#9;&#9;c-22.6,37-43.4,91.7-14.2,141.6c16.9,29,54.9,35.1,83.8,35.1c15.7,0,27.1-1.9,27.2-1.9l9.2-1.5l-6.5,6.7&#10;&#9;&#9;&#9;&#9;c-0.2,0.2-16.6,17.4-15,36c0.8,9.3,6.1,17.6,15.7,24.6l7.3,5.3l-9,0.2c-0.2,0-21,0.7-33,13.5c-6.2,6.6-9.1,15.4-8.6,26.1&#10;&#9;&#9;&#9;&#9;c1.6,38.6,86.7,43.9,87.6,44l2.9,0.2v68.6c0.3,0,0.6,0,0.9,0.1c4.2,0.3,8.4,0.5,12.5,0.5l1.8,0c0,0,0,0,0.1,0&#10;&#9;&#9;&#9;&#9;c5.1-0.1,10.2-0.3,15.2-0.7c1.1-0.1,2.2-0.2,3.3-0.3c3.9-0.4,7.8-0.8,11.6-1.3c0.3,0,0.7-0.1,1-0.2v-66.7l2.9-0.2&#10;&#9;&#9;&#9;&#9;C364.9,1216.5,450,1211.1,451.6,1172.6z M369.8,987.2c9.5-9.8,28.3-15.1,53-15.1c22.8,0,42.7,6.4,53.1,17.2&#10;&#9;&#9;&#9;&#9;c4.8,4.9,7.2,10.4,7,15.9c-0.6,17.5-37.7,29.1-62,29.1c-25.9,0-57.8-13.4-58.2-29.1C362.4,998.3,364.9,992.3,369.8,987.2z&#10;&#9;&#9;&#9;&#9; M341.8,1034.3c13.3,1.1,45.4,55.5,48.6,71c0.9,4.4,0.1,7.2-2.3,8.5c-6.3,3.3-42.3,3.4-46.4,3.4c0,0,0,0,0,0c-56,0-56.7-6-57-8.6&#10;&#9;&#9;&#9;&#9;c-1-8,28.1-46.7,40.6-60.9C335.6,1036,339.3,1034.3,341.8,1034.3z M251.3,1034.3c-25.9,0-57.8-13.4-58.2-29.1&#10;&#9;&#9;&#9;&#9;c-0.2-6.9,2.2-12.9,7.2-18c9.5-9.8,28.3-15.1,53-15.1c22.8,0,42.7,6.4,53.1,17.2c4.8,4.9,7.2,10.4,7,15.9&#10;&#9;&#9;&#9;&#9;C312.8,1022.7,275.6,1034.3,251.3,1034.3z M335.2,1190.2c-28.3,0-75.8-2.3-75.8-17.3c0-14.1,25.1-20.7,78.9-20.7&#10;&#9;&#9;&#9;&#9;c30,0,77.5,5.6,77.5,20.7C415.8,1189.8,336,1190.2,335.2,1190.2z" transform="matrix(1, 0, 0, 1, -112.03639221191406, -732.757080078125)"/><path fill="#310033" d="M338.3,1158.4c-65.7,0-72.8,10.2-72.8,14.5c0,5.4,26.7,11.2,69.7,11.2c33.8,0,72.8-5.9,74.5-11.3&#10;&#9;&#9;&#9;&#9;C409.7,1167,379.7,1158.4,338.3,1158.4z" transform="matrix(1, 0, 0, 1, -112.03639221191406, -732.757080078125)"/>
</svg>