<?xml version="1.0" encoding="utf-8"?>
<svg id="master-artboard" viewBox="0 0 450.5190734863281 558.30810546875" version="1.1" xmlns="http://www.w3.org/2000/svg" x="0px" y="0px" enable-background="new 0 0 1900 1400" width="450.5190734863281px" height="558.30810546875px"><rect id="ee-background" x="0" y="0" width="450.5190734863281" height="558.30810546875" style="fill: white; fill-opacity: 0; pointer-events: none;"/>

<path fill="#FFFFFF" d="M1388.5,526.7c22.8,65.3,83.7,141.5,180.3,141.5c0,0,2,0,2,0c79.8-0.9,141.4-37.7,188.6-112.5&#10;&#9;&#9;&#9;c17.8-28.3,34.3-88.2,41.1-149c4.7-42.7,8.6-123-18.2-181.1c-51.3-111.1-195.2-114.3-211.5-114.3c-32.3,0-71.8,11.1-105.7,29.6&#10;&#9;&#9;&#9;c-29.3,16-68.8,45.3-90.5,94c-17.4,39-22.7,91.5-15.8,156.1C1365.8,458,1383.3,511.8,1388.5,526.7z" transform="matrix(1, 0, 0, 1, -1354.3746643066406, -110.35839080810547)"/><path fill="#310033" d="M1540.3,363.9c-10-10.3-29.6-16.5-52.4-16.5c-24.7,0-43.2,5.1-52.2,14.3c-4.1,4.2-6,9.1-5.9,14.7&#10;&#9;&#9;&#9;&#9;c0.3,11.5,30.7,25.1,56.1,25.1c25.9,0,59.7-12.2,60.2-25.1C1546.1,372.2,1544.1,367.9,1540.3,363.9z" transform="matrix(1, 0, 0, 1, -1354.3746643066406, -110.35839080810547)"/><path fill="#310033" d="M1628.9,481c0.5-4.2-7.7-23.5-22.6-46.3c-12.9-19.6-21.2-27-23.7-27.2c-7.4,1.7-52.2,60.6-54.7,71.9&#10;&#9;&#9;&#9;&#9;c4.2,2.1,24,4.3,54.8,4.3C1606.9,483.8,1625,482.4,1628.9,481z" transform="matrix(1, 0, 0, 1, -1354.3746643066406, -110.35839080810547)"/><path fill="#FFF200" d="M1670.3,195.5c2.4,2.4,3.4,3.3,3.8,4c1.2,1.8,0.7,4.1-1.1,11.2c-0.2,1-0.5,2.2-0.8,3.4&#10;&#9;&#9;&#9;&#9;c1.4-0.9,2.9-1.8,4.1-2.6c5.7-3.6,7.2-4.4,8.6-4.4c1.5,0,3,0.8,9,4.3c1.5,0.9,3.7,2.1,5.4,3.1c-0.3-1.9-0.7-4.2-1.1-5.9&#10;&#9;&#9;&#9;&#9;c-1.2-6.1-1.5-7.9-0.7-9.4c0.5-1,1.5-1.9,5.5-5.7c1.2-1.1,2.9-2.7,4.4-4.2c-1.7,0-3.6,0-5-0.1c-5.9,0-7.3-0.1-8.5-0.7&#10;&#9;&#9;&#9;&#9;c-1.5-0.7-2.2-2.2-4.4-7.3c-0.7-1.7-2-4.5-3-6.6c-0.7,1.3-1.4,2.9-2,4.1c-3.6,7.6-4.8,9.6-6.7,10.3c-1,0.4-2.7,0.6-6.8,1&#10;&#9;&#9;&#9;&#9;c-1.5,0.1-3.6,0.4-5.5,0.6C1667.3,192.6,1669.1,194.4,1670.3,195.5z" transform="matrix(1, 0, 0, 1, -1354.3746643066406, -110.35839080810547)"/><path fill="#FFF200" d="M1458.1,195.5c2.5,2.4,3.4,3.3,3.8,4c1.2,1.7,0.7,4.1-1.1,11.2c-0.2,1-0.5,2.2-0.8,3.4&#10;&#9;&#9;&#9;&#9;c1.4-0.9,2.9-1.8,4.1-2.6c5.7-3.6,7.2-4.4,8.6-4.4c1.5,0,3,0.8,9,4.3c1.5,0.9,3.7,2.1,5.4,3.1c-0.3-1.9-0.7-4.2-1.1-5.9&#10;&#9;&#9;&#9;&#9;c-1.2-6.1-1.5-7.9-0.7-9.3c0.5-1,1.5-2,5.5-5.7c1.2-1.1,3-2.7,4.5-4.2c-1.7,0-3.6,0-5-0.1c-5.9,0-7.3-0.1-8.5-0.7&#10;&#9;&#9;&#9;&#9;c-1.5-0.7-2.2-2.2-4.4-7.3c-0.7-1.7-2-4.5-3-6.6c-0.7,1.3-1.4,2.9-2,4.1c-3.6,7.6-4.8,9.6-6.7,10.4c-1,0.4-2.7,0.6-6.7,1&#10;&#9;&#9;&#9;&#9;c-1.5,0.1-3.6,0.4-5.5,0.6C1455.1,192.6,1457,194.4,1458.1,195.5z" transform="matrix(1, 0, 0, 1, -1354.3746643066406, -110.35839080810547)"/><path fill="#FFF200" d="M1543.8,218.6c4.4,4.3,6.7,6.6,7.5,7.8c1.5,2.3,0.8,6.3-2.7,20.8c-1.1,4.5-2.6,10.7-3.1,14.3&#10;&#9;&#9;&#9;&#9;c3.8-1.9,10.6-6.1,15-8.9c11-6.9,14.1-8.6,16.3-8.6c2.1,0,5.6,1.8,17.2,8.6c5.1,3,13.1,7.6,17,9.3c-0.1-4.1-1.9-13-3-18.7&#10;&#9;&#9;&#9;&#9;c-2.3-12.1-2.8-15.4-1.8-17.4c0.8-1.6,3.4-4.1,10.8-10.9c4.5-4.2,11.4-10.5,14.5-14.1c-4.3-0.5-12.5-0.5-17.9-0.5&#10;&#9;&#9;&#9;&#9;c-10.6,0-14.4-0.1-16.2-1c-2-1-3.3-3.6-7.6-13.5c-2.3-5.3-6.8-15.7-9.6-19c-1.7,2.8-4.7,9-7,13.7c-6.9,14.5-9.3,18.9-12.1,19.9&#10;&#9;&#9;&#9;&#9;c-1.8,0.7-6,1.1-13.2,1.9c-5,0.5-13.6,1.4-17.5,2.3C1533,208,1540.1,214.9,1543.8,218.6z" transform="matrix(1, 0, 0, 1, -1354.3746643066406, -110.35839080810547)"/><path fill="#310033" d="M1579.1,527.4c-70.6,0-78.3,11.1-78.3,15.8c0,6,28,12.2,74.9,12.2c36.4,0,79-6.5,80-12.2&#10;&#9;&#9;&#9;&#9;C1655.8,536.8,1623.6,527.4,1579.1,527.4z" transform="matrix(1, 0, 0, 1, -1354.3746643066406, -110.35839080810547)"/><path fill="#F4783B" d="M1570.7,121.5c-55.8,0-150.7,36.5-186.9,117.5c-37.7,84.5-7.1,222.9,14.4,284.3&#10;&#9;&#9;&#9;&#9;c21.7,62.1,79.4,134.6,170.6,134.6l1.9,0c76-0.8,134.9-36,180-107.7c32.7-52,65.3-227,22.2-320.3&#10;&#9;&#9;&#9;&#9;C1724.3,124.6,1586.3,121.5,1570.7,121.5z M1657.9,188.3c0.9-2.7,3.8-3.1,12.7-4c1.6-0.2,3.7-0.4,4.8-0.5c0.9-1.3,2.7-5,3.8-7.3&#10;&#9;&#9;&#9;&#9;c3.5-7.3,4.6-9.6,7.2-9.6c3.6,0.6,5.5,4.1,9,12.2c0.6,1.4,1.4,3.2,1.9,4.2c1,0,3.5,0,5.4,0c9.2,0,12.6,0,13.6,3&#10;&#9;&#9;&#9;&#9;c0.9,2.7-1.1,4.7-8.9,11.9c-1.3,1.2-3.1,2.8-3.9,3.7c0.1,1.3,0.6,3.8,1,5.7c1.6,8.2,2,11.2,0.7,13.1l-0.7,1.1l-2.1,0.4&#10;&#9;&#9;&#9;&#9;c-1.8,0-4.1-1.2-11.3-5.4c-2-1.2-4.6-2.7-5.9-3.3c-1.2,0.6-3.6,2.1-5.4,3.3c-6.7,4.2-8.9,5.4-10.7,5.4h-1.1l-1.1-0.7&#10;&#9;&#9;&#9;&#9;c-2.1-1.7-1.5-4.6,0.4-12.1c0.5-2.2,1.3-5.4,1.5-6.9c-0.6-0.6-1.5-1.5-2.6-2.5C1658.7,192.8,1657.1,190.8,1657.9,188.3z&#10;&#9;&#9;&#9;&#9; M1523.4,202.2c1.1-3.3,5.8-4.2,23.8-6c4.7-0.5,10.5-1,11.7-1.5c1.3-1.2,5.8-10.6,8.8-16.8c7.2-15.1,8.9-18.1,12.1-18.1&#10;&#9;&#9;&#9;&#9;c5.5,0.9,9.6,9.5,15.7,23.5c1.8,4,3.9,9,4.9,10.5c2,0.3,8.2,0.3,13.3,0.4c19.4,0.1,24.1,0.4,25.3,4c1.1,3.2-1.6,6.4-17.7,21.3&#10;&#9;&#9;&#9;&#9;c-3.6,3.4-8.1,7.5-9.3,8.9c0,2,1.3,8.7,2.2,13.7c3.2,16.6,3.9,22.2,2,24.9c-0.6,0.9-1.5,1.5-2.5,1.6l-0.7,0.1&#10;&#9;&#9;&#9;&#9;c-3.1,0-9.3-3.4-21.9-10.8c-5.4-3.1-12.7-7.4-14.4-7.8c-1,0.4-7.8,4.6-12.7,7.7c-12,7.5-17.6,10.8-20.6,10.8h-1.1l-1.4-0.8&#10;&#9;&#9;&#9;&#9;c-2.6-2-1.9-6,1.9-21.9c1.4-5.6,3.4-13.9,3.3-16.3c-1-1.1-4-4.1-6.5-6.5C1525.1,208.8,1522.4,205.3,1523.4,202.2z M1445.8,188.3&#10;&#9;&#9;&#9;&#9;c0.9-2.7,3.8-3.1,12.7-4c1.6-0.2,3.7-0.4,4.8-0.5c0.9-1.3,2.7-5,3.8-7.3c3.5-7.3,4.6-9.6,7.2-9.6c3.6,0.6,5.5,4.1,9,12.2&#10;&#9;&#9;&#9;&#9;c0.6,1.4,1.4,3.2,1.9,4.2c0.9,0,3.5,0,5.4,0c9.2,0,12.6,0,13.6,3c0.9,2.6-1.1,4.6-8.9,11.9c-1.3,1.2-3.1,2.8-3.9,3.7&#10;&#9;&#9;&#9;&#9;c0.1,1.3,0.6,3.8,1,5.7c1.6,8.2,2,11.3,0.7,13.2l-0.7,1.1l-2.1,0.4c-1.8,0-4.2-1.2-11.3-5.4c-2-1.2-4.6-2.7-5.9-3.3&#10;&#9;&#9;&#9;&#9;c-1.2,0.6-3.6,2.1-5.4,3.3c-6.7,4.2-8.9,5.4-10.7,5.4h-1.1l-1.1-0.7c-2.1-1.7-1.5-4.6,0.4-12.1c0.5-2.2,1.3-5.4,1.5-6.9&#10;&#9;&#9;&#9;&#9;c-0.6-0.6-1.5-1.5-2.6-2.6C1446.5,192.7,1444.9,190.8,1445.8,188.3z M1763.2,385.8c-18.5,42.7-63.6,50.2-85.3,53.9&#10;&#9;&#9;&#9;&#9;c-2.9,0.5-6,1-7.8,1.5c0.8,1.1,2.4,2.9,3.7,4.4c5.3,6,13.2,15,13.2,27.8c0,12.4-7.6,22.5-12.6,29.2c-1.4,1.9-3.2,4.2-3.7,5.4&#10;&#9;&#9;&#9;&#9;c0.8,0.6,2.6,1.7,4.1,2.7c9,5.7,25.7,16.3,26.5,37c0.3,7-2.9,14.2-9.1,20.6c-18.7,19.5-63,31.6-115.4,31.6c-3,0-6.1,0-9.2-0.1&#10;&#9;&#9;&#9;&#9;c-63.5-1.6-89.8-17-100.7-29.6c-6.6-7.6-9.5-16.6-8.3-25.8c2-16,11.9-24.2,18.5-29.6c1.8-1.5,4.3-3.6,4.6-4.4&#10;&#9;&#9;&#9;&#9;c-4.5-6.7-6.7-13.7-6.7-32.9c0-13.4,8.6-23.7,14.4-30.6c1.1-1.3,2.4-2.8,3.2-4c-1.4-0.2-3.3-0.3-5-0.5&#10;&#9;&#9;&#9;&#9;c-22.6-2-91.5-7.9-100.2-81.8c-10.2-86.7,31.6-158.2,32-158.9l9.1-15.2l-3.4,17.4c-0.1,0.7-13.3,69.7,23.5,83.2&#10;&#9;&#9;&#9;&#9;c5.5,2,10.6,3,15.8,3c17.2,0,30.8-11.4,43.9-22.4c2.2-1.9,4.5-3.8,6.7-5.6l3.9-3.2l1,5c9.4,48.1,53,81.7,59.6,84.1&#10;&#9;&#9;&#9;&#9;c60.7-27.5,58.9-86,58.8-88.5l-0.7-16.9l6.6,15.6c7.6,17.9,27.8,30.9,48.1,30.9c9.3,0,18-2.6,25.9-7.8&#10;&#9;&#9;&#9;&#9;c27.5-18,19.1-71.9,19.1-72.4l-2-12.5l7.5,10.2C1761,231.5,1787.1,330.7,1763.2,385.8z" transform="matrix(1, 0, 0, 1, -1354.3746643066406, -110.35839080810547)"/><path fill="#310033" d="M1669.6,347.4c-24.7,0-43.2,5.1-52.2,14.3c-4.1,4.2-6,9.1-5.9,14.7c0.3,11.5,30.7,25.1,56.1,25.1&#10;&#9;&#9;&#9;&#9;c25.9,0,59.7-12.2,60.2-25.1c0.1-4.1-1.8-8.5-5.7-12.5C1712,353.6,1692.4,347.4,1669.6,347.4z" transform="matrix(1, 0, 0, 1, -1354.3746643066406, -110.35839080810547)"/><path fill="#B2D235" d="M1721.2,286.2c-8.9,5.8-18.7,8.8-29.3,8.8c-18.9,0-37.8-10.2-48.5-25.2c-2.4,19.8-13.2,62.1-62.5,84&#10;&#9;&#9;&#9;&#9;l-0.6,0.3l-1,0.1c-7.5,0-52.7-35.6-64.7-84.3c-0.9,0.8-1.8,1.5-2.8,2.3c-14,11.7-28.4,23.9-47.8,23.9c-5.8,0-11.8-1.1-17.9-3.4&#10;&#9;&#9;&#9;&#9;c-29.2-10.7-31.3-49.2-29.7-72.3c-11.4,25.3-30.5,78.6-23.4,139.4c8.1,69,71,74.4,94.6,76.4c7.7,0.7,10,0.9,11.1,3.1&#10;&#9;&#9;&#9;&#9;c1.6,3.3-1,6.5-5.1,11.4c-5.2,6.2-12.9,15.5-12.9,26.7c0,19.4,2.4,24.6,5.8,30c3,4.7-1.5,8.4-5.9,12&#10;&#9;&#9;&#9;&#9;c-6.2,5.1-14.6,12.1-16.3,25.7c-0.9,7.6,1.4,14.7,6.9,21c14.2,16.5,48.4,26.3,96.2,27.5c3,0.1,6.1,0.1,9,0.1&#10;&#9;&#9;&#9;&#9;c60.8,0,97.2-15.3,111-29.7c5.1-5.3,7.6-10.7,7.4-16.2c-0.7-17.5-15.1-26.6-23.7-32.1c-3.6-2.3-5.7-3.6-6.6-5.4&#10;&#9;&#9;&#9;&#9;c-1.6-3.2,0.9-6.5,4.6-11.6c4.8-6.4,11.4-15.1,11.4-25.5c0-10.4-6.8-18.1-11.7-23.8c-3.6-4.1-6.3-7.1-5.6-10.5&#10;&#9;&#9;&#9;&#9;c0.7-3.3,4.1-3.9,13.3-5.4c20.6-3.5,63.5-10.6,80.6-50.3c19.8-45.7,3-126.1-13.2-161.3C1745,240.7,1742.8,272.1,1721.2,286.2z&#10;&#9;&#9;&#9;&#9; M1565.3,415.7c11.1-12.6,15.1-14.3,17.5-14.3c14.2,1.1,48.4,59.3,51.8,75.9c0.9,4.6,0.1,7.5-2.4,8.9c-6.7,3.6-45.2,3.7-49.6,3.7&#10;&#9;&#9;&#9;&#9;c-59.8,0-60.6-6.3-60.9-9C1520.7,472.3,1551.8,430.9,1565.3,415.7z M1485.8,407.6c-27.6,0-61.8-14.3-62.2-31&#10;&#9;&#9;&#9;&#9;c-0.2-7.3,2.4-13.7,7.6-19.1c10.2-10.4,30.3-16.1,56.6-16.1c24.4,0,45.7,6.9,56.8,18.4c5.1,5.2,7.6,11.1,7.5,16.9&#10;&#9;&#9;&#9;&#9;C1551.5,395.2,1511.8,407.6,1485.8,407.6z M1575.8,561.5c-30.3,0-81.1-2.4-81.1-18.4c0-15,26.8-21.9,84.4-21.9&#10;&#9;&#9;&#9;&#9;c32,0,82.8,6,82.8,21.9C1662,560.7,1576.7,561.5,1575.8,561.5z M1667.6,407.6c-27.6,0-61.8-14.3-62.2-31&#10;&#9;&#9;&#9;&#9;c-0.2-7.3,2.4-13.7,7.6-19.1c10.2-10.4,30.3-16.1,56.6-16.1c24.4,0,45.7,6.9,56.8,18.4c5.1,5.2,7.6,11.1,7.5,16.9&#10;&#9;&#9;&#9;&#9;C1733.2,395.2,1693.6,407.6,1667.6,407.6z" transform="matrix(1, 0, 0, 1, -1354.3746643066406, -110.35839080810547)"/>
</svg>