<?xml version="1.0" encoding="utf-8"?>
<svg id="master-artboard" viewBox="0 0 450.5190734863281 558.30810546875" version="1.1" xmlns="http://www.w3.org/2000/svg" x="0px" y="0px" enable-background="new 0 0 1900 1400" width="450.5190734863281px" height="558.30810546875px"><rect id="ee-background" x="0" y="0" width="450.5190734863281" height="558.30810546875" style="fill: white; fill-opacity: 0; pointer-events: none;"/>

<path fill="#FFFFFF" d="M771.7,509.9c22.8,65.3,83.7,141.5,180.3,141.5c0,0,2,0,2,0c79.8-0.9,141.4-37.7,188.5-112.5&#10;&#9;&#9;&#9;c17.8-28.3,34.3-88.2,41.1-149c4.7-42.7,8.6-123-18.2-181.1C1114.1,97.7,970.1,94.5,953.9,94.5c-32.3,0-71.8,11.1-105.8,29.6&#10;&#9;&#9;&#9;c-29.3,16-68.8,45.3-90.5,94c-17.4,38.9-22.7,91.5-15.8,156.1C748.9,441.2,766.5,495,771.7,509.9z" transform="matrix(1, 0, 0, 1, -737.5487108230591, -93.99947357177734)"/><path fill="#310033" d="M1045.7,384.5c25.9,0,59.7-12.2,60.2-25.1c0.1-4.1-1.8-8.5-5.7-12.5c-10-10.3-29.6-16.5-52.4-16.5&#10;&#9;&#9;&#9;&#9;c-24.7,0-43.2,5.1-52.2,14.3c-4.1,4.2-6,9.1-5.9,14.7C989.9,370.9,1020.3,384.5,1045.7,384.5z" transform="matrix(1, 0, 0, 1, -737.5487108230591, -93.99947357177734)"/><path fill="#310033" d="M1007,464.1c0.6-4.2-7.4-23.1-22.6-46.2c-12.9-19.6-21.2-27.1-23.7-27.3c-7.4,1.7-52.2,60.6-54.7,71.9&#10;&#9;&#9;&#9;&#9;c4.2,2.1,24,4.3,54.7,4.3C985,466.8,1003.1,465.4,1007,464.1z" transform="matrix(1, 0, 0, 1, -737.5487108230591, -93.99947357177734)"/><path fill="#310033" d="M863.9,384.5c25.9,0,59.7-12.2,60.2-25.1c0.1-4.1-1.8-8.4-5.7-12.5c-10-10.3-29.6-16.5-52.4-16.5&#10;&#9;&#9;&#9;&#9;c-24.7,0-43.2,5.1-52.2,14.3c-4,4.2-6,9.1-5.9,14.7C808.1,370.9,838.5,384.5,863.9,384.5z" transform="matrix(1, 0, 0, 1, -737.5487108230591, -93.99947357177734)"/><path fill="#FFF200" d="M958.8,217.5c2.2,2.6,1.4,8.9-5,39.4c-1.9,9.2-4.4,20.8-5.3,27.5c13.5-14.2,56.6-65.6,66.2-79.3&#10;&#9;&#9;&#9;&#9;c-2.9-0.6-7.3-1.4-11.6-2.2c-48.7-9.4-48.9-10.5-49.6-13.4c-0.4-1.8,0.5-4.9,7.5-25.3c3.5-10.3,8.7-25.6,11.2-34.9&#10;&#9;&#9;&#9;&#9;c-31.7,32.5-63,67-66.2,74.9c4,2.2,18.7,4.8,27.7,6.4C950.3,213.6,956.7,215,958.8,217.5z" transform="matrix(1, 0, 0, 1, -737.5487108230591, -93.99947357177734)"/><path fill="#310033" d="M879,526.2c0,6,28,12.2,74.9,12.2c36.4,0,79-6.5,80-12.2c0-6.4-32.2-15.8-76.7-15.8&#10;&#9;&#9;&#9;&#9;C886.6,510.4,879,521.5,879,526.2z" transform="matrix(1, 0, 0, 1, -737.5487108230591, -93.99947357177734)"/><path fill="#FFF200" d="M1103.1,472.7c-0.3-1.4,0-2.5,4.6-16.3c1.6-4.8,3.9-11.5,5.6-16.9c-17.1,17.6-33.3,35.6-36.7,41.4&#10;&#9;&#9;&#9;&#9;c3.1,1.1,10.8,2.5,15.7,3.4c11,2,14.6,2.7,16.2,4.6c1.7,2.1,1.4,5.4-2.8,25.3c-0.9,4.2-1.9,9.2-2.7,13.1&#10;&#9;&#9;&#9;&#9;c9.4-10.5,30.2-35.4,37-44.5c-1.6-0.3-3.5-0.7-5.3-1C1103.8,476,1103.7,475.3,1103.1,472.7z" transform="matrix(1, 0, 0, 1, -737.5487108230591, -93.99947357177734)"/><path fill="#B2D235" d="M951.9,641.1l1.9,0c76-0.8,134.9-36,180-107.7c32.7-52,65.3-227,22.2-320.3&#10;&#9;&#9;&#9;&#9;c-48.6-105.3-186.6-108.3-202.2-108.3c-55.8,0-150.7,36.5-186.9,117.5c-37.7,84.5-7.1,222.9,14.4,284.3&#10;&#9;&#9;&#9;&#9;C803.1,568.6,860.7,641.1,951.9,641.1z M1148,479l-0.1,2c-0.2,4.7-44.4,55.6-47.2,56.7l-1.3,0.2h-1.5l-1.1-1.2&#10;&#9;&#9;&#9;&#9;c-1.6-2-1.3-4.9,2.7-23.8c1.4-6.9,3.6-16.9,3.7-20.3c-1.8-0.5-7.7-1.6-12.1-2.4c-12.6-2.2-18.3-3.5-20.4-5.9&#10;&#9;&#9;&#9;&#9;c-2.1-2.4-4.9-5.6,45.5-56.7l2.2-2.2l2.2,2.2c2.1,2.1,1.7,4.7-7.1,30.6c-1.5,4.4-3.1,9.2-3.9,11.9c5.1,1.5,19,4.2,26.2,5.5&#10;&#9;&#9;&#9;&#9;c9.1,1.7,9.8,1.9,10.4,2.2L1148,479z M974.3,118.4l2.2-2.2l2.2,2.2c2.6,2.6,1.7,7.6-11.9,47.8c-2.8,8.2-5.9,17.4-6.9,21.1&#10;&#9;&#9;&#9;&#9;c6.6,2.4,31.7,7.2,44.4,9.6c13.6,2.6,15.6,3,16.5,3.5l1.8,0.9l0,2.1c-0.2,5.1-69.3,87.8-75.4,90.3l-1.3,0.3h-1.5l-1.2-1.3&#10;&#9;&#9;&#9;&#9;c-2-2.5-1.3-8,4.8-37c2.7-12.9,6.4-30.3,6-34.4c-2.4-1.2-13.2-3.1-21.2-4.6c-19.5-3.5-29-5.5-32-9&#10;&#9;&#9;&#9;&#9;C898.6,205.4,893.8,199.9,974.3,118.4z M778.8,294.1c1.1-1.5,2-2.8,73.9-2.8c16.6,0,71.1,0.1,75.6,1.7c3.3,1.2,8.7,7.7,20.1,22.4&#10;&#9;&#9;&#9;&#9;c5.3,6.8,12.5,16.1,15,18.1c3-1.5,9.5-14.2,13.1-21.3c6.4-12.7,10.3-19.9,14.8-20.9c4.9-1.1,57.8-2,95.2-2&#10;&#9;&#9;&#9;&#9;c53,0,54.4,1.6,55.7,3.1c3.5,4.1,7,108.6-0.2,115.8c-3,3-16.9,3.5-63.3,4c-21,0.2-46.5,0.4-54.8,1.7c1.1,1,2.6,2.2,4,3.3&#10;&#9;&#9;&#9;&#9;c7.9,6.2,21.1,16.6,23.1,34.5c1.9,17.1-5.8,27.5-10,33.1c-0.4,0.5-0.8,1.1-1.2,1.7c10,3.8,30.8,16.2,30.8,38.1&#10;&#9;&#9;&#9;&#9;c0,23-28.6,49.8-109.3,49.8c-50.1,0-86.4-9.5-102.3-26.8c-6.3-6.8-9.3-14.9-8.6-23.3c1.7-21.3,21.7-32.1,30.2-36.7&#10;&#9;&#9;&#9;&#9;c0.4-0.2,0.8-0.4,1.2-0.6c-0.2-0.2-0.4-0.5-0.6-0.7c-4.6-5.5-14.2-16.9-12.5-30.5c1.3-10.5,12-23.9,19.7-33.7&#10;&#9;&#9;&#9;&#9;c1.5-1.9,3.2-4,4.5-5.7c-9.4-0.1-32.3-0.4-55-1.1c-57.8-1.8-58.5-4.3-59.4-7.1C778.1,407.2,775.3,298.8,778.8,294.1z&#10;&#9;&#9;&#9;&#9; M824.6,427.8l2.2-2.2l2.2,2.2c2.1,2.1,1.7,4.7-7.1,30.7c-1.5,4.4-3.1,9.2-3.9,11.9c5.1,1.5,19,4.2,26.2,5.6&#10;&#9;&#9;&#9;&#9;c9.1,1.7,9.8,1.9,10.4,2.2l1.8,0.9l-0.1,2c-0.2,4.7-44.4,55.6-47.2,56.7l-1.3,0.2h-1.5l-1.1-1.2c-1.6-2-1.3-4.9,2.7-23.8&#10;&#9;&#9;&#9;&#9;c1.5-6.9,3.6-16.9,3.7-20.3c-1.8-0.5-7.7-1.6-12.1-2.4c-12.6-2.2-18.3-3.5-20.4-5.9C777,482.1,774.2,478.8,824.6,427.8z" transform="matrix(1, 0, 0, 1, -737.5487108230591, -93.99947357177734)"/><path fill="#FFF200" d="M816.7,488.9c1.7,2.1,1.4,5.4-2.8,25.3c-0.9,4.2-1.9,9.2-2.7,13.1c9.4-10.5,30.2-35.4,37-44.5&#10;&#9;&#9;&#9;&#9;c-1.6-0.3-3.4-0.7-5.3-1c-30.8-5.9-30.9-6.5-31.5-9.2c-0.3-1.4,0-2.5,4.6-16.2c1.6-4.8,3.9-11.5,5.6-16.9&#10;&#9;&#9;&#9;&#9;c-17,17.6-33.3,35.6-36.7,41.4c3.1,1.1,10.8,2.5,15.7,3.4C811.5,486.3,815.2,487.1,816.7,488.9z" transform="matrix(1, 0, 0, 1, -737.5487108230591, -93.99947357177734)"/><path fill="#A967AA" d="M897,410.1c1.5,0,2.7,0.7,3.3,2c1.3,2.7-0.8,5.5-7.3,13.6c-6.9,8.7-17.3,21.8-18.4,30.6&#10;&#9;&#9;&#9;&#9;c-1.4,10.9,6.7,20.6,11.1,25.8c2.2,2.6,3.2,3.8,3.2,5.4c0,2.3-1.6,3.2-5.6,5.3c-8.3,4.5-25.6,13.8-27.1,31.8&#10;&#9;&#9;&#9;&#9;c-0.5,6.7,1.8,13,7,18.7c14.8,16,49.5,24.8,97.8,24.8c71.3,0,103.2-22,103.2-43.7c0-23.3-27.9-32.8-28.1-32.9&#10;&#9;&#9;&#9;&#9;c-2.1-0.7-2.9-2-3.2-2.9c-0.8-2.5,0.8-4.7,3-7.6c3.9-5.2,10.4-14,8.8-28.7c-1.7-15.3-13.2-24.4-20.8-30.4c-5.1-4-8.8-7-7.3-10.9&#10;&#9;&#9;&#9;&#9;c1.5-3.7,6.6-4.5,61.9-5c22.8-0.2,53.7-0.5,59-2.3c3.7-9.6,2.2-95.1-0.2-106.9c-2.8-0.5-13.2-1.4-50.9-1.4&#10;&#9;&#9;&#9;&#9;c-42.1,0-90.1,1.1-93.9,1.9c-2.2,0.9-7.3,11-10.6,17.7c-7.6,14.9-12.6,24-18.5,24.7c0,0,0,0,0,0c-3.4,0-6.1-2.9-19.8-20.6&#10;&#9;&#9;&#9;&#9;c-6-7.7-15-19.2-17.4-20.4c-3-0.7-34.6-1.3-73.4-1.3c-38.1,0-62.1,0.5-68.7,1.1c-1.1,13.8-1.1,95.3,0.1,106.7&#10;&#9;&#9;&#9;&#9;C794.9,408.6,876.3,410.1,897,410.1z M1040.1,526.2c0,17.6-85.3,18.4-86.2,18.4c-30.3,0-81.1-2.4-81.1-18.4&#10;&#9;&#9;&#9;&#9;c0-15,26.8-21.9,84.4-21.9C989.2,504.3,1040.1,510.2,1040.1,526.2z M991.1,340.5c10.2-10.4,30.3-16.1,56.6-16.1&#10;&#9;&#9;&#9;&#9;c24.4,0,45.7,6.9,56.8,18.4c5.1,5.2,7.6,11.1,7.5,16.9c-0.6,18.6-40.3,31-66.3,31c-27.6,0-61.8-14.3-62.2-31&#10;&#9;&#9;&#9;&#9;C983.3,352.3,985.8,345.8,991.1,340.5z M960.9,384.5c14.2,1.1,48.4,59.3,51.8,75.9c0.9,4.6,0.1,7.5-2.4,8.9&#10;&#9;&#9;&#9;&#9;c-6.7,3.5-45.2,3.7-49.6,3.7c-59.8,0-60.6-6.3-60.9-9c-1.1-8.5,30-49.9,43.4-65.1C956,384.5,959.3,384.5,960.9,384.5z&#10;&#9;&#9;&#9;&#9; M809.4,340.5c10.2-10.4,30.3-16.1,56.6-16.1c24.4,0,45.7,6.9,56.8,18.4c5.1,5.2,7.6,11.1,7.5,16.9c-0.6,18.6-40.3,31-66.3,31&#10;&#9;&#9;&#9;&#9;c-27.6,0-61.8-14.3-62.2-31C801.5,352.3,804.1,345.8,809.4,340.5z" transform="matrix(1, 0, 0, 1, -737.5487108230591, -93.99947357177734)"/>
</svg>