<?xml version="1.0" encoding="utf-8"?>
<svg id="master-artboard" viewBox="0 0 457.70550537109375 566.8632202148438" version="1.1" xmlns="http://www.w3.org/2000/svg" x="0px" y="0px" enable-background="new 0 0 1900 1400" width="457.70550537109375px" height="566.8632202148438px"><rect id="ee-background" x="0" y="0" width="457.70550537109375" height="566.8632202148438" style="fill: white; fill-opacity: 0; pointer-events: none;"/>


<g transform="matrix(1, 0, 0, 1, -738.3342895507812, -733.8276853561401)">
		<path fill="#220023" d="M 674.5941284179687 503.1 C 641.9941284179687 503.1 648.5823852539062 546.0647094726563 614.2823852539062 564.7647094726562 C 584.6823852539062 580.9647094726563 529.958837890625 655.0352905273437 508.058837890625 704.2352905273438 C 490.558837890625 743.6352905273437 567.7129521532243 849.5800780726387 574.6470947265625 914.8764526367188 C 581.8470947265625 982.6764526367188 339.0275738963546 1305.3285738882507 624.375537109375 1244.0518798828125 C 692.7105194288588 1229.3773620609634 557.7334106445313 1297.75 655.3334106445313 1297.75 L 555.6749938964845 1251.9320068359375 C 636.2749938964845 1251.0320068359374 624.1208618164064 1188.0593017578126 671.8208618164062 1112.4593017578125 C 689.8208618164062 1083.8593017578125 676.4528076171875 854.4058715820313 683.2528076171875 792.9058715820312 C 688.0528076171875 749.8058715820312 739.2025634765625 708.6965087890625 712.1025634765624 649.9965087890624 C 660.2025634765625 537.5965087890625 690.9941284179688 503.1 674.5941284179687 503.1 Z"/>
		<path fill="#FFFFFF" d="M 958.3 736 C 925.6999999999999 736 885.6999999999999 747.2 851.4 765.9 C 821.8 782.1 781.9 811.6999999999999 760 860.9 C 742.5 900.3 737.1 953.3 744 1018.5999999999999 C 751.2 1086.3999999999999 768.9 1140.8 774.2 1155.8999999999999 C 797.2 1221.8999999999999 858.8000000000001 1298.8999999999999 956.4000000000001 1298.8999999999999 C 956.4000000000001 1298.8999999999999 958.4000000000001 1298.8999999999999 958.4000000000001 1298.8999999999999 C 1039 1297.9999999999998 1101.3000000000002 1260.8 1149 1185.1999999999998 C 1167 1156.6 1183.7 1096.1 1190.5 1034.6 C 1195.3 991.4999999999999 1199.2 910.3 1172.1 851.5999999999999 C 1120.3 739.3 974.8 736 958.3 736 Z"/>
		<g>
			<path fill="#310033" d="M 925.9 1009.7 C 916.6 1000.1 898.4 994.4000000000001 877.1999999999999 994.4000000000001 C 854.1999999999999 994.4000000000001 836.9999999999999 999.1000000000001 828.5999999999999 1007.7 C 824.8999999999999 1011.5 822.9999999999999 1016.1 823.1999999999999 1021.3000000000001 C 823.4999999999999 1031.9 851.6999999999999 1044.5 875.3 1044.5 C 899.4 1044.5 930.8 1033.3 931.1999999999999 1021.3 C 931.3 1017.4 929.5 1013.4 925.9 1009.7 Z"/>
			<path fill="#310033" d="M 965.6 1127.3 C 988 1127.3 1004.7 1126 1008.5 1124.8 C 1008.8 1120.3999999999999 1000.2 1100.7 985.3 1078.7 C 974.5 1062.8 967.5 1056.8 965.5 1056.6000000000001 C 958.4 1058.4 917.4 1112.3000000000002 914.7 1123.4 C 919 1125.4 937.4 1127.3 965.6 1127.3 C 965.6 1127.3 965.6 1127.3 965.6 1127.3 Z"/>
			<path fill="#310033" d="M 939.1 841 C 945 841 949.8000000000001 836.2 949.8000000000001 830.3 C 949.8000000000001 824.3999999999999 945.0000000000001 819.5999999999999 939.1 819.5999999999999 C 933.2 819.5999999999999 928.4 824.3999999999999 928.4 830.3 C 928.4 836.2 933.2 841 939.1 841 Z"/>
			<path fill="#310033" d="M 962.3 1174.5 C 896.5999999999999 1174.5 889.5 1184.7 889.5 1189 C 889.5 1194.4 916.2 1200.2 959.2 1200.2 C 993 1200.2 1032 1194.3 1033.7 1188.9 C 1033.6 1183.2 1003.7 1174.5 962.3 1174.5 Z"/>
			<path fill="#FFF200" d="M 920.3 885.2 C 922.6999999999999 887 924.0999999999999 888 924.6999999999999 889.6 C 925.5999999999999 892 925.4 896.6 924.8 903.9 C 924.5 908.1999999999999 924 914.6 924.5 916.1 C 925.7 917.4 934.1 920.2 937.3 921.2 C 937.8 921.4000000000001 938.1999999999999 921.5 938.5999999999999 921.6 C 939.0999999999999 919.4 939.6999999999999 915.9 940.1999999999999 913 C 942.6999999999999 898.7 944.0999999999999 891.8 948.9 891.8 C 954.1 891.8 955 899.1999999999999 955.8 916 C 955.9 918.2 956 920.7 956.1999999999999 922.3 C 957.8 922.3 959.8 921.9 960.4999999999999 921.6999999999999 L 961.1999999999999 921.4999999999999 L 961.9 921.6999999999999 C 962.6 921.9 964.6999999999999 922.3 966.1999999999999 922.3 C 966.3 920.6999999999999 966.4999999999999 918.1999999999999 966.5999999999999 916 C 967.3999999999999 899.2 968.3 891.8 973.4999999999999 891.8 C 978.1999999999999 891.8 979.6999999999999 898.6999999999999 982.1999999999999 913 C 982.6999999999999 915.8 983.3 919.4 983.8 921.6 C 984.1999999999999 921.5 984.6999999999999 921.3000000000001 985.0999999999999 921.2 C 988.3 920.1 996.6999999999999 917.3000000000001 998.0999999999999 915.8000000000001 C 998.4999999999999 914.6 997.9999999999999 908.2 997.6999999999999 903.9000000000001 C 997.1999999999999 896.6000000000001 996.9 892.0000000000001 997.8 889.6000000000001 C 998.4 888.1000000000001 999.8 887.0000000000001 1002.1999999999999 885.2000000000002 C 1009.6999999999999 879.7000000000002 1027.1999999999998 866.7000000000002 1026.6 829.6000000000001 C 1025.8999999999999 785.8000000000002 986.0999999999999 769.5000000000001 961.1999999999999 769.5000000000001 C 936.3 769.5000000000001 896.4999999999999 785.8000000000001 895.8 829.6000000000001 C 895.3 866.6 912.8 879.6 920.3 885.2 Z M 983.5 813.4 C 992.8 813.4 1000.3 820.9 1000.3 830.1999999999999 C 1000.3 839.4999999999999 992.8 846.9999999999999 983.5 846.9999999999999 C 974.2 846.9999999999999 966.7 839.4999999999999 966.7 830.1999999999999 C 966.7 820.9 974.2 813.4 983.5 813.4 Z M 961.3 848.4 L 963.8 852.1999999999999 C 968.3 858.9 975.8 870.8 975.8 874.9 L 975.5999999999999 875.9 C 974.5999999999999 879 970.6999999999999 880.1999999999999 961.3 880.1999999999999 C 951.8 880.0999999999999 947.9 878.9 946.9 875.9 L 946.6999999999999 874.9 C 946.6999999999999 870.8 954.1999999999999 858.9 958.6999999999999 852.1999999999999 L 961.3 848.4 Z M 939.1 813.4 C 948.4 813.4 955.9 820.9 955.9 830.1999999999999 C 955.9 839.4999999999999 948.4 846.9999999999999 939.1 846.9999999999999 C 929.8000000000001 846.9999999999999 922.3000000000001 839.4999999999999 922.3000000000001 830.1999999999999 C 922.3000000000001 820.9 929.8 813.4 939.1 813.4 Z"/>
			<path fill="#EC148E" d="M 1125.3 864.3 C 1125.5 883.3 1125.8999999999999 918.6999999999999 1098.3999999999999 933.5999999999999 C 1092.4999999999998 936.8 1086.1999999999998 938.3999999999999 1079.6999999999998 938.3999999999999 C 1056.6 938.3999999999999 1036.4999999999998 918.2999999999998 1027.6999999999998 907.9999999999999 C 1024.7999999999997 926.0999999999999 1012.6999999999998 971.9999999999999 962.3999999999999 994.0999999999999 L 960.8999999999999 994.6999999999999 L 959.4999999999999 993.9 C 957.1999999999999 992.5 906.5999999999999 960.4 898.7999999999998 915.1 C 890.8999999999999 922.4 873.0999999999998 935.4 848.8999999999999 933.9 C 836.6999999999998 933.1 825.6999999999998 926.8 817.1999999999998 915.8 C 806.5999999999998 902.0999999999999 800.9999999999998 882.1999999999999 801.7999999999998 862.6999999999999 C 790.2999999999998 881.8 768.9999999999999 925.4999999999999 772.5999999999998 980.5999999999999 C 776.7999999999998 1044.1 809.9999999999998 1080.5 863.4999999999998 1080.5 C 867.7999999999997 1080.5 872.1999999999998 1080.3 876.5999999999998 1079.8 L 878.0999999999998 1079.6 L 879.0999999999998 1080.6999999999998 C 882.1999999999998 1084.1 878.9999999999998 1087.8999999999999 875.5999999999998 1091.9999999999998 C 867.4999999999998 1101.5999999999997 853.9999999999998 1117.6999999999998 874.8999999999997 1146.1999999999998 L 875.3999999999997 1147.2999999999997 C 876.2999999999997 1150.7999999999997 872.7999999999997 1152.7999999999997 867.4999999999998 1155.6999999999998 C 858.4999999999998 1160.6999999999998 844.8999999999997 1168.1999999999998 844.8999999999997 1182.6999999999998 C 844.8999999999997 1214.1 886.0999999999998 1231.8999999999999 960.9999999999998 1232.6999999999998 L 965.5999999999998 1232.6999999999998 C 1062.1999999999998 1232.6999999999998 1078.1 1200.6 1080.4999999999998 1186.7999999999997 C 1081.7999999999997 1179.3999999999996 1077.6999999999998 1167.0999999999997 1051.2999999999997 1150.5999999999997 C 1050.3999999999996 1149.9999999999998 1049.6999999999998 1149.0999999999997 1049.4999999999998 1147.9999999999998 C 1048.9999999999998 1145.6999999999998 1050.4999999999998 1143.5999999999997 1053.0999999999997 1140.0999999999997 C 1060.1999999999996 1130.2999999999997 1073.4999999999998 1112.0999999999997 1044.4999999999998 1087.0999999999997 L 1043.9999999999998 1086.4999999999998 C 1043.1999999999998 1085.1999999999998 1042.9999999999998 1083.7999999999997 1043.5999999999997 1082.4999999999998 C 1044.8999999999996 1079.4999999999998 1048.8999999999996 1078.7999999999997 1058.4999999999998 1077.2999999999997 C 1077.1999999999998 1074.2999999999997 1111.9999999999998 1068.6999999999998 1134.1999999999998 1041.0999999999997 C 1165.4999999999998 1002.1999999999997 1150.6 908.6999999999997 1125.1 859.6999999999997 C 1125.3 861.2 1125.3 862.8 1125.3 864.3 Z M 965.7 1050.5 C 979 1051.6 1011.1 1106 1014.3000000000001 1121.5 C 1015.2 1125.8 1014.4000000000001 1128.7 1012.0000000000001 1130 C 1005.7000000000002 1133.3 969.8000000000001 1133.4 965.7000000000002 1133.4 C 965.7000000000002 1133.4 965.7000000000002 1133.4 965.7000000000002 1133.4 C 909.7000000000002 1133.4 909.0000000000001 1127.4 908.7000000000002 1124.8000000000002 C 907.7000000000002 1116.8000000000002 936.8000000000002 1078.1000000000001 949.3000000000002 1063.9 C 959.6 1052.2 963.3 1050.5 965.7 1050.5 Z M 875.2 1050.5 C 849.3000000000001 1050.5 817.4000000000001 1037.1 817 1021.4 C 816.8 1014.5 819.2 1008.5 824.2 1003.4 C 833.7 993.6 852.5 988.3 877.2 988.3 C 900 988.3 919.9000000000001 994.6999999999999 930.3000000000001 1005.5 C 935.1 1010.4 937.5000000000001 1015.9 937.3000000000001 1021.4 C 936.7 1038.9 899.6 1050.5 875.2 1050.5 Z M 959.2 1206.4 C 930.9000000000001 1206.4 883.4000000000001 1204.1000000000001 883.4000000000001 1189.1000000000001 C 883.4000000000001 1175.0000000000002 908.5000000000001 1168.4 962.3000000000001 1168.4 C 992.3000000000001 1168.4 1039.8000000000002 1174 1039.8000000000002 1189.1000000000001 C 1039.8 1205.9 960 1206.4 959.2 1206.4 Z M 1044.8 1050.5 C 1018.9 1050.5 987 1037.1 986.5999999999999 1021.4 C 986.3999999999999 1014.5 988.8 1008.5 993.8 1003.4 C 1003.3 993.6 1022.0999999999999 988.3 1046.8 988.3 C 1069.6 988.3 1089.5 994.6999999999999 1099.8999999999999 1005.5 C 1104.6999999999998 1010.4 1107.1 1015.9 1106.8999999999999 1021.4 C 1106.3 1038.9 1069.1 1050.5 1044.8 1050.5 Z"/>
			<path fill="#A967AA" d="M 958.3 746.3 C 901.8 746.3 805.9 783.1999999999999 769.4 865.0999999999999 C 731.3 950.4999999999999 762.3 1090.3999999999999 783.9 1152.5 C 805.8 1215.3 864.1 1288.6 956.4 1288.6 L 958.3 1288.6 C 1035.1 1287.8 1094.7 1252.1999999999998 1140.3 1179.6999999999998 C 1173.3999999999999 1127.1 1206.3999999999999 950.1999999999998 1162.8 855.7999999999998 C 1113.6 749.4 974.1 746.3 958.3 746.3 Z M 961.3 763.3 C 988.5 763.3 1032 781.1999999999999 1032.8 829.4 C 1033.3999999999999 869.6 1014.1999999999999 883.9 1005.9 890 C 1004.9 890.8 1003.6 891.7 1003.3 892 C 1003 893 1003.5 899.2 1003.8 903.3 C 1004.5 912.6999999999999 1004.5999999999999 916.6999999999999 1003.3 919 C 1001.5999999999999 921.7 996.5 923.8 987.0999999999999 926.9 C 985.4999999999999 927.4 984.1999999999999 927.9 983.5999999999999 928.1 L 982.9999999999999 928.4 L 982.1999999999999 928.4 C 978.6999999999999 928.4 978.0999999999999 925.1 976.1999999999999 914 C 975.5999999999999 910.8 974.8 905.8 973.9 902.1 C 973.3 906.6 973 912.9 972.8 916.3000000000001 C 972.4 924.0000000000001 972.3 925.3000000000001 971.4 926.5000000000001 C 970 928.4000000000001 967.3 928.4000000000001 966.5 928.4000000000001 C 964.6 928.4000000000001 962.4 928.0000000000001 961.3 927.8000000000001 C 960.1999999999999 928.0000000000001 958.0999999999999 928.4000000000001 956.0999999999999 928.4000000000001 C 955.1999999999999 928.4000000000001 952.5999999999999 928.4000000000001 951.1999999999999 926.5000000000001 C 950.3 925.3000000000001 950.1999999999999 924.0000000000001 949.8 916.3000000000001 C 949.5999999999999 912.9000000000001 949.3 906.6 948.6999999999999 902.1 C 947.8 905.8000000000001 946.9 910.8000000000001 946.4 914 C 944.5 925 943.9 928.4 940.4 928.4 L 939 928.1 C 938.5 927.8000000000001 937.2 927.4 935.5 926.9 C 926.1 923.8 921 921.6999999999999 919.3 919 C 917.9 916.8 918.0999999999999 912.7 918.8 903.3 C 919.0999999999999 899.1999999999999 919.5999999999999 893.0999999999999 919.0999999999999 891.6999999999999 C 918.9999999999999 891.6999999999999 917.6999999999999 890.8 916.6999999999999 889.9999999999999 C 908.4999999999999 883.8999999999999 889.1999999999999 869.5999999999999 889.8 829.3999999999999 C 890.5 781.3 934 763.3 961.3 763.3 Z M 1139.2 1045 C 1115.5 1074.4 1079.2 1080.3 1059.7 1083.4 C 1056.8 1083.9 1053.6000000000001 1084.4 1051.4 1084.9 C 1081.2 1112.5 1065.3000000000002 1134.4 1058.4 1143.9 C 1057.8000000000002 1144.8000000000002 1057 1145.8000000000002 1056.5 1146.6000000000001 C 1078.9 1161.0000000000002 1089.2 1174.9 1086.9 1188.0000000000002 C 1084.3000000000002 1203.3000000000002 1067.2 1239.0000000000002 966.0000000000001 1239.0000000000002 L 961.4000000000001 1239.0000000000002 C 860.4000000000001 1237.9000000000003 839.2 1207.9000000000003 839.2 1182.9000000000003 C 839.2 1164.9000000000003 855.9000000000001 1155.6000000000004 864.9000000000001 1150.6000000000004 C 866.3000000000001 1149.8000000000004 868.0000000000001 1148.9000000000003 869.1000000000001 1148.2000000000003 C 847.3000000000002 1116.9000000000003 863.5000000000001 1097.6000000000004 871.4000000000001 1088.3000000000002 C 871.9000000000001 1087.7000000000003 872.4000000000001 1087.1000000000001 872.9000000000001 1086.5000000000002 C 811.7 1091.0000000000002 771.5000000000001 1050.8000000000002 766.9000000000001 981.3000000000002 C 761.8000000000001 904.6000000000001 803.8000000000001 849.3000000000002 804.2 848.7000000000002 L 812.1 838.5000000000001 L 809.6 851.1000000000001 C 805.4 872.8000000000002 810.4 896.8000000000002 822.3000000000001 912.2000000000002 C 829.7 921.8000000000002 839.2 927.3000000000002 849.6 928.0000000000001 C 879.3000000000001 930.0000000000001 898.9 906.9000000000001 899.1 906.7000000000002 L 903.9 900.9000000000002 L 904.5 908.4000000000002 C 907.7 950.0000000000002 953.3 982.3000000000002 961.8 988.0000000000002 C 1019.9 961.5000000000002 1022.8 901.0000000000002 1022.8 900.4000000000002 L 1023.0999999999999 891.5000000000002 L 1028.3 898.8000000000002 C 1028.5 899.1000000000001 1052.8 932.6000000000001 1079.8999999999999 932.6000000000001 C 1085.3999999999999 932.6000000000001 1090.6999999999998 931.2000000000002 1095.6999999999998 928.5000000000001 C 1119.9999999999998 915.3000000000001 1119.6 883.6000000000001 1119.3999999999999 864.6000000000001 C 1119.3 855.0000000000001 1119.3 850.7000000000002 1121.6 848.5000000000001 L 1124.3999999999999 845.8000000000001 L 1126.3999999999999 849.1 C 1155.1 896.4 1173.7 1002.1 1139.2 1045 Z"/>
			<path fill="#310033" d="M 1046.7 994.4 C 1023.7 994.4 1006.5 999.1 998.1 1007.6999999999999 C 994.4 1011.4999999999999 992.5 1016.0999999999999 992.7 1021.3 C 993 1031.8999999999999 1021.2 1044.5 1044.8 1044.5 C 1068.8999999999999 1044.5 1100.3 1033.3 1100.7 1021.3 C 1100.8 1017.5 1099 1013.5 1095.4 1009.8 C 1086.1 1000.1 1067.9 994.4 1046.7 994.4 Z"/>
			<path fill="#310033" d="M 983.5 841 C 989.4 841 994.2 836.2 994.2 830.3 C 994.2 824.3999999999999 989.4000000000001 819.5999999999999 983.5 819.5999999999999 C 977.6 819.5999999999999 972.8 824.3999999999999 972.8 830.3 C 972.8 836.2 977.5 841 983.5 841 Z"/>
			<path fill="#310033" d="M 969.2 873.5 C 968 870.7 964.7 865 961.2 859.5 C 957.7 865 954.5 870.6 953.3000000000001 873.5 C 954.5000000000001 873.8 956.9000000000001 874.1 961.3000000000001 874.1 C 965.7 874.1 968 873.8 969.2 873.5 Z"/>
		</g>
	</g></svg>