<?xml version="1.0" encoding="utf-8"?>
<svg id="master-artboard" viewBox="0 0 454.42694091796875 563.1929321289062" version="1.1" xmlns="http://www.w3.org/2000/svg" x="0px" y="0px" enable-background="new 0 0 1900 1400" width="454.42694091796875px" height="563.1929321289062px"><rect id="ee-background" x="0" y="0" width="454.42694091796875" height="563.1929321289062" style="fill: white; fill-opacity: 0; pointer-events: none;"/>

<path fill="#FFFFFF" d="M143.9,523.1c23,66,84.6,143,182.2,143c0,0,2,0,2,0c80.6-0.9,142.9-38.1,190.6-113.7&#10;&#9;&#9;&#9;c19.2-30.4,36.2-94.5,42.4-159.5c0-0.3,0-0.6,0-0.9c0.1-0.3,0.1-0.7,0.1-1c6.4-69.9-0.5-131-19.5-172.2&#10;&#9;&#9;&#9;C489.9,106.4,344.4,103.2,328,103.2c-32.6,0-72.6,11.2-106.9,29.9c-29.6,16.2-69.5,45.8-91.4,95c-17.5,39.4-22.9,92.4-16,157.7&#10;&#9;&#9;&#9;C120.9,453.6,138.6,508,143.9,523.1z" transform="matrix(1, 0, 0, 1, -110.08777359127998, -103.02426147460938)"/><path fill="#FFEA00" d="M537.3,392c-15-7.3-25.3-22.9-25.8-23.6l-1.3-2l1.7-1.8c21.7-22.7,27.8-47.8,29.6-60.8&#10;&#9;&#9;&#9;&#9;c-16.4,13-50.8,13.5-55.2,13.5H482l1.1-4c9.9-31.5,0.7-56.5-5.7-68.6c-3.4,28.1-23.8,67.4-34.6,68c-9,0.5-18.1-0.1-28.2-15.7&#10;&#9;&#9;&#9;&#9;c-5-7.7-12.3-15.1-17.3-19.8c0.1,21.1-11.6,36.3-20.4,47.7c-2,2.6-3.9,5.1-5.5,7.4c-3.2,4.8-7.1,8.5-10.9,12.1&#10;&#9;&#9;&#9;&#9;c-6.8,6.6-12.7,12.2-12.7,22.4c0,18.6-6.4,20.8-8.3,21l-0.3,0l-0.3,0c-2-0.2-8.3-2.4-8.3-21c0-10.1-5.9-15.8-12.7-22.4&#10;&#9;&#9;&#9;&#9;c-3.8-3.6-7.6-7.3-10.9-12.1c-1.6-2.3-3.5-4.8-5.5-7.4c-8.8-11.4-20.5-26.6-20.4-47.7c-5,4.7-12.3,12.1-17.3,19.8&#10;&#9;&#9;&#9;&#9;c-10.2,15.5-19.2,16.1-28.2,15.7c-10.7-0.6-31.1-39.9-34.6-68c-6.4,12.2-15.6,37.2-5.7,68.6l1.2,3.9l-4.1,0&#10;&#9;&#9;&#9;&#9;c-4.6,0-39-0.4-55.4-13.5c1.7,13,7.9,38.1,29.6,60.8l1.7,1.8l-1.3,2c-0.5,0.8-10.8,16.4-25.8,23.6c8.2,3.4,24,8.2,43.9,6.9&#10;&#9;&#9;&#9;&#9;l5.5-0.4l-2.6,4.9c-0.6,1.2-13.6,24.9-28.5,39.5c12.3-1.3,35.5-6.3,59.2-24.1l5.2-3.9l-0.3,6.5c0,0.8-1,18.4-11.8,37.9&#10;&#9;&#9;&#9;&#9;c13.6-4,43.8-15.2,65.1-40.5l7.1-8.4l-1.7,10.9c-0.1,0.7-2.8,17.2-13.3,31c-9,11.7-13.4,36.2,2.1,49.9l4.3,3.8l-5.5,1.5&#10;&#9;&#9;&#9;&#9;c-1.4,0.4-34.1,9.4-30.4,38.5c3.6,28.3,39.4,34.5,99.9,35.6c60.6-1.1,96.4-7.2,100-35.6c3.7-29.1-30-38.4-30.4-38.5l-5.6-1.5&#10;&#9;&#9;&#9;&#9;l4.3-3.8c15.6-13.7,11.1-38.2,2.1-49.9c-10.6-13.7-13.2-30.3-13.3-31l-1.7-10.9l7.1,8.4c21.2,25.3,51.5,36.5,65.1,40.5&#10;&#9;&#9;&#9;&#9;c-10.8-19.5-11.8-37-11.8-37.9l-0.3-6.5l5.2,3.9c23.6,17.8,46.9,22.8,59.2,24.1c-15-14.6-27.9-38.4-28.5-39.5l-2.6-4.9l5.5,0.4&#10;&#9;&#9;&#9;&#9;C513.3,400.2,529.1,395.3,537.3,392z M324.4,418.4c10.4-11.8,14.1-13.4,16.5-13.4c13.3,1.1,45.4,55.5,48.6,71&#10;&#9;&#9;&#9;&#9;c0.9,4.4,0.1,7.2-2.3,8.5c-6.3,3.3-42.3,3.4-46.4,3.4c0,0,0,0,0,0c-56,0-56.7-6-57-8.6C282.8,471.3,311.9,432.5,324.4,418.4z&#10;&#9;&#9;&#9;&#9; M250.5,405c-25.9,0-57.8-13.4-58.2-29.1c-0.2-6.9,2.2-12.9,7.2-18c9.5-9.8,28.3-15.1,53-15.1c22.8,0,42.7,6.4,53.1,17.2&#10;&#9;&#9;&#9;&#9;c4.8,4.9,7.2,10.4,7,15.9C312,393.3,274.8,405,250.5,405z M415,543.5c0,16.9-79.8,17.3-80.6,17.3c-28.3,0-75.8-2.3-75.8-17.3&#10;&#9;&#9;&#9;&#9;c0-14.1,25.1-20.7,78.9-20.7C367.5,522.8,415,528.5,415,543.5z M420,405c-25.9,0-57.8-13.4-58.2-29.1c-0.2-6.9,2.2-12.9,7.2-18&#10;&#9;&#9;&#9;&#9;c9.5-9.8,28.3-15.1,53-15.1c22.8,0,42.7,6.4,53.1,17.2c4.8,4.9,7.2,10.4,7,15.9C481.5,393.3,444.4,405,420,405z" transform="matrix(1, 0, 0, 1, -110.08777359127998, -103.02426147460938)"/><path fill="#310033" d="M422,348.8c-23,0-40.2,4.7-48.6,13.3c-3.7,3.8-5.6,8.4-5.4,13.6c0.3,10.6,28.5,23.2,52.1,23.2&#10;&#9;&#9;&#9;&#9;c24.1,0,55.5-11.2,55.9-23.2c0.1-3.8-1.7-7.8-5.3-11.5C461.4,354.6,443.2,348.8,422,348.8z" transform="matrix(1, 0, 0, 1, -110.08777359127998, -103.02426147460938)"/><path fill="#310033" d="M301.1,364.2c-9.3-9.6-27.5-15.3-48.7-15.3c-23,0-40.2,4.7-48.6,13.3c-3.7,3.8-5.6,8.4-5.4,13.6&#10;&#9;&#9;&#9;&#9;c0.3,10.6,28.5,23.2,52.1,23.2c24.1,0,55.5-11.2,55.9-23.2C306.5,371.8,304.7,367.9,301.1,364.2z" transform="matrix(1, 0, 0, 1, -110.08777359127998, -103.02426147460938)"/><path fill="#310033" d="M264.7,543.5c0,5.4,26.7,11.2,69.7,11.2c33.8,0,72.8-5.9,74.5-11.3c0-5.8-30-14.5-71.4-14.5&#10;&#9;&#9;&#9;&#9;C271.8,529,264.7,539.1,264.7,543.5z" transform="matrix(1, 0, 0, 1, -110.08777359127998, -103.02426147460938)"/><path fill="#EC148E" d="M326,655.8l1.9,0c76.8-0.8,136.4-36.5,182-108.9c17.3-27.5,34.6-89,40.9-155l-4,2.4&#10;&#9;&#9;&#9;&#9;c-0.8,0.4-18.8,10.9-46.5,10.9c-0.5,0-1.1,0-1.7,0c5.5,9.3,18.4,29.6,31.1,38.8l7.2,5.2l-9.8,0.4c-5.7,0-34.5-1.1-65.1-21.7&#10;&#9;&#9;&#9;&#9;c1.4,7.8,5,21.2,13.9,34.6l4.1,6.1l-7.2-1.4c-1.7-0.3-38.3-7.7-67.1-35.2c1.9,5.1,4.7,11.1,8.9,16.5c10,12.9,14.9,38,0.6,54.6&#10;&#9;&#9;&#9;&#9;c10.3,4.1,33.5,16.5,30.1,43.5c-4.6,36.1-52.7,40-106,40.9h-0.1h-0.1c-53.2-0.9-101.4-4.8-106-40.9c-3.4-27,19.7-39.3,30.1-43.5&#10;&#9;&#9;&#9;&#9;c-14.3-16.6-9.4-41.7,0.6-54.6c4.2-5.4,7-11.5,8.9-16.5c-28.7,27.5-65.4,34.9-67.1,35.2l-7.2,1.4l4.1-6.1&#10;&#9;&#9;&#9;&#9;c8.9-13.4,12.5-26.8,13.9-34.6c-30.5,20.6-59.3,21.7-65.1,21.7l-9.8-0.4l7.2-5.2c12.6-9.1,25.6-29.5,31.1-38.8&#10;&#9;&#9;&#9;&#9;c-28.4,0.3-47.4-10.4-48.2-10.9l-6.4-3.8l7.2-1.8c13.4-3.4,24.2-16.7,27.9-21.7c-30.9-33.7-30.3-70.6-30.2-72.2l0.3-11.8&#10;&#9;&#9;&#9;&#9;l5.5,10.5c6.8,13,35.2,17.1,52.3,17.7c-12.5-45.7,11.9-77,12.9-78.3l6-7.5l-0.5,9.6c-1.5,27.3,22.7,71,29.2,71.7&#10;&#9;&#9;&#9;&#9;c8.3,0.4,14.9-0.8,22.8-12.9c8.8-13.5,23.4-25.7,24.1-26.2l6.1-5l-1.1,7.8c-3.2,22.6,8.9,38.3,18.6,50.8c2.1,2.7,4.1,5.3,5.7,7.7&#10;&#9;&#9;&#9;&#9;c2.9,4.2,6.5,7.7,10.1,11.1c7.2,6.9,14.6,14,14.6,26.8c0,9.2,1.6,12.9,2.6,14.2c0.8-1.3,2.5-5,2.5-14.2&#10;&#9;&#9;&#9;&#9;c0-12.7,7.4-19.9,14.6-26.8c3.5-3.4,7.2-6.9,10.1-11.1c1.6-2.4,3.6-4.9,5.7-7.7c9.7-12.6,21.8-28.2,18.6-50.8l-1.1-7.8l6.1,5&#10;&#9;&#9;&#9;&#9;c0.6,0.5,15.2,12.7,24.1,26.2c7.9,12.1,14.5,13.4,22.8,12.9c6.5-0.7,30.7-44.4,29.2-71.7l-0.5-9.6l6,7.5&#10;&#9;&#9;&#9;&#9;c1.1,1.3,25.4,32.6,12.9,78.3c17.2-0.6,45.6-4.7,52.3-17.7l5.5-10.5l0.3,11.8c0,1.6,0.7,38.5-30.2,72.2&#10;&#9;&#9;&#9;&#9;c3.7,5,14.6,18.3,27.9,21.7l5,1.3c5.5-59.5,2-122.4-18.6-167C483.3,116.5,343.7,113.5,328,113.5c-56.5,0-152.4,36.9-188.9,118.8&#10;&#9;&#9;&#9;&#9;c-38.1,85.4-7.2,225.4,14.5,287.4C175.5,582.5,233.8,655.8,326,655.8z" transform="matrix(1, 0, 0, 1, -110.08777359127998, -103.02426147460938)"/><path fill="#310033" d="M340.9,481.8c22.4,0,39.1-1.3,42.9-2.5c0.3-4.4-8.3-24.1-23.2-46.1c-10.8-15.9-17.8-22-19.8-22.1&#10;&#9;&#9;&#9;&#9;c-7.1,1.8-48.1,55.7-50.8,66.8C294.2,479.8,312.6,481.8,340.9,481.8L340.9,481.8z" transform="matrix(1, 0, 0, 1, -110.08777359127998, -103.02426147460938)"/>
</svg>