<?xml version="1.0" encoding="utf-8"?>
<svg id="master-artboard" viewBox="0 0 470.9490051269531 584.6619262695312" version="1.1" xmlns="http://www.w3.org/2000/svg" x="0px" y="0px" enable-background="new 0 0 1900 1400" width="470.9490051269531px" height="584.6619262695312px"><rect id="ee-background" x="0" y="0" width="470.9490051269531" height="584.6619262695312" style="fill: white; fill-opacity: 0; pointer-events: none;"/>

<path fill="#FFFFFF" d="M1792.7,859.6c-53.6-116.1-204.1-119.4-221.1-119.4c-33.7,0-75,11.6-110.5,31&#10;&#9;&#9;&#9;c-30.6,16.7-71.9,47.4-94.6,98.2c-18.1,40.7-23.7,95.6-16.5,163.2c7.5,70.2,25.8,126.5,31.3,142.1&#10;&#9;&#9;&#9;c23.8,68.2,87.4,147.8,188.3,147.8c0,0,2.1,0,2.1,0c83.3-0.9,147.8-39.4,197.1-117.6c18.6-29.6,35.9-92.2,42.9-155.8&#10;&#9;&#9;&#9;C1816.6,1004.4,1820.7,920.4,1792.7,859.6z" transform="matrix(1, 0, 0, 1, -1345.942434310913, -738.8414916992188)"/><path fill="#310033" d="M1585.9,1137.1c24.7,0,43.2-1.4,47.4-2.8c0.4-4.7-8.8-26-24.9-49.9c-12.3-18.3-20.2-25.2-22.6-25.4&#10;&#9;&#9;&#9;&#9;c-7.4,1.8-53.2,62-56.1,73.7C1534.3,1134.9,1554.6,1137.1,1585.9,1137.1L1585.9,1137.1z" transform="matrix(1, 0, 0, 1, -1345.942434310913, -738.8414916992188)"/><path fill="#00AEEF" d="M1571.6,750.4c-58.5,0-157.9,38.2-195.7,123c-39.4,88.5-7.4,233.5,15.1,297.8c22.7,65,83.1,141,178.6,141&#10;&#9;&#9;&#9;&#9;l2,0c79.6-0.9,141.2-37.8,188.5-112.8c34.3-54.4,68.4-237.7,23.3-335.5C1732.4,753.6,1587.9,750.4,1571.6,750.4z M1780.3,1031.9&#10;&#9;&#9;&#9;&#9;c-7.8,38.4-62.3,51-91.6,57.8c-5.8,1.3-12.2,2.8-15,3.9c0.8,1.2,2.5,2.9,3.9,4.3c5.3,5.3,13.3,13.2,13.3,27.4&#10;&#9;&#9;&#9;&#9;c0,12-6.3,20.8-10.4,26.7c-1.4,2-3.3,4.7-3.6,5.9c15.7,5.1,35.1,23.4,35.1,37.4c-0.8,21.2-18.9,57.1-130.8,59.8&#10;&#9;&#9;&#9;&#9;c-3.7,0.1-7.3,0.1-10.7,0.1c-68.1,0-97.3-16.6-109.9-30.5c-7.9-8.8-11.7-19.3-10.6-29.8c1.9-18.6,18.9-27.5,28-32.2&#10;&#9;&#9;&#9;&#9;c1.5-0.8,3.2-1.7,4.3-2.4c-0.5-0.7-1.1-1.5-1.7-2.3c-3.7-4.8-10-12.9-11.2-27.6c-1-12,6.3-22.7,11.7-30.5&#10;&#9;&#9;&#9;&#9;c1.8-2.7,4.5-6.5,5.1-8.5c-48-2.3-77.1-22.9-89.6-31.7c-15.3-10.8-16.7-32.9-14-75.4c1.4-22.3,8.7-52.1,12.9-67.9&#10;&#9;&#9;&#9;&#9;c10.9-40.7,13.4-40.7,15.5-40.7h2.5l0.8,2.6c18.2,68.7,50.1,70.9,98.2,74.3c35.7,2.5,59.4,23.8,69.2,37.9&#10;&#9;&#9;&#9;&#9;c19.5-33,55.5-35.3,84.7-37.2c14.5-0.9,28.2-1.8,37.6-6.3c19.3-9.1,28.3-40.7,33.7-59.6c3.5-12.4,4.7-16.6,8.7-16.6h0.8l1,0.4&#10;&#9;&#9;&#9;&#9;C1756.8,876.1,1790.3,982.2,1780.3,1031.9z" transform="matrix(1, 0, 0, 1, -1345.942434310913, -738.8414916992188)"/><path fill="#FFF200" d="M1744,889.2c-5.7,20-15.2,53.4-37.2,63.8c-10.5,5-24.8,5.9-40,6.9c-30.5,2-65,4.2-82,38.8l-3.1-1.4&#10;&#9;&#9;&#9;&#9;l-3,0.8c-1.8-4.6-23.8-35.9-66.6-38.9c-45.3-3.2-81.5-5.7-101.6-70.2c-6.3,18.8-19.5,66-21.4,95.8c-2.5,39.1-1.4,60.6,11.3,69.6&#10;&#9;&#9;&#9;&#9;c12.3,8.6,40.9,28.9,88.4,30.6l1.3,0l0.9,0.9c4.6,4.6,0.4,10.7-4.5,17.8c-5.1,7.4-11.4,16.5-10.6,26.2&#10;&#9;&#9;&#9;&#9;c1.1,12.8,6.4,19.6,9.9,24.1c1.8,2.3,3.2,4.1,3.6,6.1c0.7,3.7-2.9,5.6-8.3,8.5c-8.6,4.5-22.9,12-24.5,27.1&#10;&#9;&#9;&#9;&#9;c-0.6,6.1,0.4,15.3,8.9,24.7c11.6,12.9,39.3,28.3,105,28.3c3.4,0,7,0,10.6-0.1c110.5-2.7,123.8-38.2,124.4-53.3&#10;&#9;&#9;&#9;&#9;c0-10.9-18.2-27.4-31.4-31.3l-1.1-0.5c-5.7-4.3-1.5-10.1,2.1-15.2c4.1-5.8,9.2-13,9.2-22.8c0-11.5-6.3-17.7-11.3-22.7&#10;&#9;&#9;&#9;&#9;c-3.4-3.4-6.4-6.3-6.4-10.1c0-4.5,5.2-5.7,20.5-9.2c27.8-6.4,79.7-18.4,86.6-52.7c9-44.3-18.2-131.4-27.1-150.4&#10;&#9;&#9;&#9;&#9;C1745.9,882.7,1744.9,886.1,1744,889.2z M1586,1052.4c14.7,1.2,49.9,61.1,53.5,78.2c1,4.8,0.1,7.9-2.5,9.3&#10;&#9;&#9;&#9;&#9;c-6.9,3.7-46.5,3.8-51.1,3.8c0,0,0,0,0,0c-61.6,0-62.5-6.6-62.8-9.4c-1.1-8.8,30.9-51.4,44.7-67.1&#10;&#9;&#9;&#9;&#9;C1580.8,1052.4,1584.3,1052.4,1586,1052.4z M1486.3,1059c-28.5,0-63.7-14.8-64.1-32.1c-0.2-7.6,2.5-14.2,7.9-19.8&#10;&#9;&#9;&#9;&#9;c10.5-10.7,31.2-16.7,58.3-16.7c25.2,0,47,7.1,58.5,18.9c5.2,5.4,7.9,11.5,7.7,17.5C1554,1046.2,1513.1,1059,1486.3,1059z&#10;&#9;&#9;&#9;&#9; M1667.6,1198.3c0,18.2-87.9,19-88.8,19c-31.2,0-83.5-2.5-83.5-19c0-15.5,27.6-22.7,86.9-22.7&#10;&#9;&#9;&#9;&#9;C1615.2,1175.6,1667.6,1181.8,1667.6,1198.3z M1673.2,1059c-28.5,0-63.7-14.8-64.1-32.1c-0.2-7.6,2.5-14.2,7.9-19.8&#10;&#9;&#9;&#9;&#9;c10.5-10.7,31.2-16.7,58.3-16.7c25.2,0,47,7.1,58.5,18.9c5.2,5.4,7.9,11.5,7.7,17.5C1740.9,1046.2,1700,1059,1673.2,1059z" transform="matrix(1, 0, 0, 1, -1345.942434310913, -738.8414916992188)"/><path fill="#310033" d="M1582.2,1182.2c-72.5,0-80.3,11.3-80.3,16.1c0,6,29.4,12.4,76.9,12.4c37.5,0,80.5-6.5,82.2-12.5&#10;&#9;&#9;&#9;&#9;C1661,1191.9,1627.9,1182.2,1582.2,1182.2z" transform="matrix(1, 0, 0, 1, -1345.942434310913, -738.8414916992188)"/><path fill="#310033" d="M1675.3,997.1c-25.3,0-44.4,5.2-53.6,14.7c-4.1,4.2-6.2,9.3-6,15c0.3,11.7,31.5,25.6,57.5,25.6&#10;&#9;&#9;&#9;&#9;c26.6,0,61.3-12.4,61.7-25.6c0.1-4.2-1.9-8.6-5.8-12.7C1718.8,1003.5,1698.7,997.1,1675.3,997.1z" transform="matrix(1, 0, 0, 1, -1345.942434310913, -738.8414916992188)"/><path fill="#310033" d="M1542.1,1014.1c-10.3-10.6-30.4-16.9-53.8-16.9c-25.4,0-44.4,5.2-53.6,14.7c-4.1,4.2-6.2,9.3-6,15&#10;&#9;&#9;&#9;&#9;c0.3,11.7,31.5,25.6,57.5,25.6c26.6,0,61.3-12.4,61.7-25.7C1548.1,1022.6,1546.1,1018.2,1542.1,1014.1z" transform="matrix(1, 0, 0, 1, -1345.942434310913, -738.8414916992188)"/>
</svg>